# xmcd
#
# Track frame offsets:
# 150
# 11607
# 23381
# 36587
# 47494
# 61419
# 74140
# 86169
# 111486
# 119934
# 142172
# 151507
# 167071
# 184569
# 198047
# 216943
#
# Disc length: 3050 seconds
#
#
# Revision: 0
# Processed by: cddbd v1.4PL0 Copyright (c) Steve Scherf et al.
# Submitted via: FreeRIP 2.30 
#
DISCID=e80be810
DTITLE=Various Artist - KOVBOJSKE PISNICKY
DYEAR=2003
DGENRE=Country
TTITLE0=BEDNA OD WHISKY
TTITLE1=DO RANA TOULAM SE
TTITLE2=KOVBOJUV NAREK
TTITLE3=CHAJDA DMOVA
TTITLE4=TOM DOOLEY
TTITLE5=GOOD BYE JIMMY
TTITLE6=KVETLY MAKY
TTITLE7=JE NA ZAPAD CESTA DLOUHA
TTITLE8=KRAJINA POSEDLA TMOU
TTITLE9=OPOUSTIM SVUJ RODNY KRAJ
TTITLE10=RIKATADO
TTITLE11=LETI SIP
TTITLE12=SING, SING
TTITLE13=SIROU ROVINOU
TTITLE14=TRI KRIZE
TTITLE15=RODNE UDOLI
EXTD=
EXTT0=
EXTT1=
EXTT2=
EXTT3=
EXTT4=
EXTT5=
EXTT6=
EXTT7=
EXTT8=
EXTT9=
EXTT10=
EXTT11=
EXTT12=
EXTT13=
EXTT14=
EXTT15=
PLAYORDER=
